<?xml version="1.0" encoding="UTF-8" standalone="no"?>
<!DOCTYPE svg PUBLIC "-//W3C//DTD SVG 1.1//EN" "http://www.w3.org/Graphics/SVG/1.1/DTD/svg11.dtd">
<svg width="100%" height="100%" viewBox="0 0 1600 80" version="1.1" xmlns="http://www.w3.org/2000/svg" xmlns:xlink="http://www.w3.org/1999/xlink" xml:space="preserve" xmlns:serif="http://www.serif.com/" style="fill-rule:evenodd;clip-rule:evenodd;stroke-linejoin:round;stroke-miterlimit:2;">
    <g id="_2858987.svg" serif:id="2858987.svg" transform="matrix(0.432031,0,0,0.188361,827,45)">
        <g transform="matrix(1,0,0,1,-640,-320)">
            <g transform="matrix(0.1,0,0,-0.1,0,640)">
                <path d="M962,5115C960,5110 955,5042 950,4965C946,4888 938,4801 934,4773C927,4718 910,4700 910,4747C910,4765 907,4771 900,4764C894,4758 887,4709 883,4655C878,4576 873,4552 858,4540C842,4526 840,4504 837,4290L835,4055L812,4052C798,4050 785,4038 779,4024C774,4010 770,3858 770,3685L770,3370L743,3364C727,3361 710,3357 704,3355C685,3349 680,3257 680,2915C680,2734 677,2575 674,2563C669,2546 660,2540 640,2540C622,2540 611,2534 608,2522C604,2508 591,2504 542,2503C508,2502 478,2505 475,2510C464,2528 440,2520 440,2500C440,2489 445,2480 450,2480C468,2480 461,2462 441,2455C430,2452 419,2436 415,2420C410,2397 403,2390 384,2390L359,2390L362,2698L365,3005L330,3011C303,3015 299,3018 313,3024C340,3037 333,3047 288,3062L245,3075L242,3278C240,3428 236,3487 226,3503C218,3515 210,3537 206,3552C203,3567 191,3584 180,3590C169,3596 160,3609 160,3620C160,3645 119,3666 52,3673L0,3679L0,2497C0,1847 3,1305 6,1293L12,1270L6330,1270C9804,1270 12680,1273 12721,1276L12795,1283L12792,2347C12790,3323 12788,3412 12774,3406C12744,3395 12730,3419 12730,3480C12730,3547 12726,3550 12624,3550C12581,3550 12559,3555 12550,3566C12533,3585 12438,3576 12400,3551C12366,3529 12209,3532 12173,3556C12152,3569 12143,3570 12122,3560C12108,3554 12044,3545 11981,3540C11917,3535 11804,3526 11730,3519C11565,3505 11569,3505 11547,3515C11530,3522 11529,3517 11531,3459C11534,3402 11532,3394 11512,3385C11491,3376 11491,3373 11488,3040C11485,2737 11483,2701 11466,2668C11456,2647 11444,2630 11439,2630C11434,2630 11430,2660 11430,2698C11431,2735 11428,2812 11425,2870C11422,2928 11417,3259 11415,3605C11412,3952 11408,4240 11406,4246C11404,4252 11375,4262 11342,4269C11295,4278 11281,4285 11277,4302C11272,4321 11269,4322 11254,4310C11240,4298 11236,4298 11223,4315C11207,4337 11162,4340 11011,4325C10944,4319 10926,4313 10923,4300C10920,4288 10898,4278 10852,4268C10796,4256 10785,4250 10787,4234C10788,4224 10792,3892 10796,3498C10803,2837 10802,2779 10786,2756C10770,2730 10737,2722 10714,2738C10701,2746 10701,2751 10697,3040C10694,3225 10692,3250 10672,3292C10661,3318 10646,3359 10640,3382C10626,3436 10587,3496 10561,3505C10532,3514 10494,3625 10485,3724C10484,3735 10478,3746 10472,3748C10464,3750 10460,3734 10460,3694C10460,3640 10455,3628 10385,3511C10312,3387 10276,3308 10287,3296C10291,3293 10286,3282 10277,3272C10263,3257 10260,3222 10258,3039L10255,2825L10165,2825L10162,3070C10161,3205 10156,3423 10152,3555L10145,3794L10095,3806L10092,3994C10090,4137 10087,4181 10077,4177C10068,4174 10064,4123 10062,3987L10060,3801L10023,3798C9993,3796 9985,3790 9980,3770C9975,3747 9970,3745 9911,3744C9873,3743 9845,3737 9840,3730C9836,3723 9835,3539 9838,3320C9841,3102 9840,2912 9837,2899C9831,2877 9825,2875 9763,2872C9673,2868 9662,2864 9658,2832L9655,2805L9556,2808C9485,2810 9451,2815 9440,2825C9419,2844 9356,2844 9340,2825C9332,2816 9311,2810 9284,2810C9213,2810 9206,2796 9214,2663C9217,2601 9218,2550 9215,2550C9212,2550 9193,2569 9172,2592C9027,2757 8996,2785 8958,2787C8922,2788 8920,2787 8857,2687C8821,2631 8787,2574 8780,2561C8769,2539 8766,2538 8755,2553C8748,2562 8728,2573 8710,2576C8693,2580 8667,2594 8653,2607C8628,2633 8626,2633 8518,2614L8482,2608L8478,2682C8476,2722 8479,2797 8484,2848C8490,2904 8490,2944 8484,2949C8479,2954 8452,2953 8423,2947C8378,2938 8365,2939 8334,2954C8298,2971 8297,2970 8274,2949C8257,2933 8244,2929 8225,2934C8200,2940 8199,2939 8205,2911C8212,2877 8192,2860 8141,2860C8114,2860 8111,2857 8108,2823C8106,2802 8101,2785 8095,2785C8090,2785 8027,2791 7955,2798C7848,2809 7807,2809 7725,2798L7625,2785L7628,2750C7630,2724 7626,2709 7611,2695C7599,2685 7585,2658 7579,2636C7564,2575 7546,2540 7535,2543C7521,2548 7510,2627 7517,2678C7522,2716 7519,2725 7494,2751C7470,2776 7459,2780 7409,2780C7350,2780 7322,2796 7333,2824C7336,2832 7333,2846 7326,2855C7316,2869 7294,2872 7172,2871C7025,2871 6964,2865 6943,2847C6934,2841 6930,2808 6930,2748C6930,2676 6927,2658 6914,2653C6905,2650 6894,2653 6889,2661C6884,2669 6880,2856 6880,3078C6880,3465 6879,3480 6861,3480C6835,3480 6822,3499 6818,3545C6816,3579 6812,3584 6795,3582C6784,3580 6726,3570 6665,3560C6593,3547 6552,3544 6544,3551C6524,3567 6519,3503 6521,3296C6523,3191 6520,3099 6516,3092C6511,3084 6516,3080 6532,3080C6555,3079 6555,3079 6535,3064C6516,3050 6516,3048 6533,3039C6555,3026 6557,2960 6535,2960C6526,2960 6520,2969 6520,2985C6520,3022 6500,3015 6499,2978C6499,2950 6497,2948 6490,2966C6483,2984 6440,3020 6426,3020C6423,3020 6419,3010 6417,2998L6413,2975L6411,2998C6410,3015 6404,3020 6381,3020C6356,3020 6351,3016 6348,2993C6345,2966 6344,2965 6285,2967C6227,2970 6103,2986 6067,2997C6057,2999 6045,3011 6041,3022C6035,3039 6023,3042 5935,3045C5870,3048 5834,3054 5828,3062C5822,3072 5818,3072 5812,3063C5808,3057 5791,3048 5775,3044C5758,3040 5741,3034 5735,3030C5730,3026 5664,3017 5590,3010C5495,3002 5453,2994 5447,2984C5434,2961 5423,2967 5375,3029C5312,3112 5303,3120 5270,3120C5255,3120 5240,3126 5237,3134C5234,3142 5219,3150 5203,3152L5175,3155L5172,3268C5169,3379 5169,3381 5143,3391C5105,3405 4790,3396 4759,3380C4746,3373 4709,3366 4677,3364C4624,3361 4582,3345 4595,3332C4598,3329 4594,3320 4587,3312C4578,3301 4575,3217 4575,2976L4575,2655L4546,2652C4530,2650 4513,2654 4508,2662C4503,2669 4500,2713 4502,2760L4505,2845L4463,2848C4434,2850 4417,2857 4411,2869C4403,2883 4383,2888 4309,2893C4258,2897 4211,2905 4204,2911C4193,2920 4190,2961 4190,3086C4190,3186 4186,3251 4180,3255C4174,3259 4126,3266 4072,3271C4019,3277 3951,3288 3923,3296C3894,3304 3847,3314 3818,3317C3789,3320 3761,3329 3757,3336C3747,3354 3723,3354 3713,3336C3709,3329 3687,3320 3665,3317C3520,3297 3432,3283 3422,3276C3413,3271 3410,3189 3410,2960C3410,2632 3407,2612 3366,2662C3354,2676 3336,2690 3325,2692C3311,2694 3302,2707 3296,2736C3288,2774 3283,2778 3256,2779C3239,2780 3216,2781 3205,2782C3194,2783 3175,2780 3162,2776C3141,2769 3140,2771 3140,2818C3140,2850 3135,2872 3125,2880C3117,2887 3110,2909 3110,2930L3110,2968L3053,2972C3017,2975 2980,2972 2956,2964C2935,2956 2899,2950 2876,2950C2812,2950 2691,2924 2671,2906C2653,2890 2652,2896 2645,3087L2638,3285L2606,3285C2581,3285 2575,3289 2577,3304C2578,3315 2568,3337 2554,3353C2536,3375 2530,3393 2530,3431C2530,3458 2526,3480 2520,3480C2515,3480 2510,3498 2510,3520C2510,3542 2506,3560 2500,3560C2490,3560 2484,3489 2488,3409C2491,3351 2468,3336 2398,3352C2358,3362 2351,3367 2346,3394C2343,3411 2333,3452 2326,3485L2312,3545L2311,3458C2310,3377 2308,3369 2286,3354C2270,3344 2260,3327 2258,3307C2255,3280 2251,3275 2229,3275C2202,3276 2202,3274 2194,3190C2190,3143 2186,3052 2186,2987C2185,2885 2183,2867 2168,2859C2152,2850 2150,2831 2150,2694C2150,2574 2147,2539 2138,2542C2129,2545 2124,2581 2122,2666C2121,2731 2115,2789 2110,2794C2104,2800 2100,2818 2100,2836C2100,2853 2094,2872 2088,2878C2065,2897 1884,2913 1829,2901C1802,2895 1753,2890 1722,2890C1691,2890 1660,2886 1654,2882C1646,2876 1638,2771 1640,2690C1642,2623 1637,2454 1634,2448C1627,2437 1488,2450 1473,2463C1466,2468 1460,2489 1460,2510C1460,2531 1453,2553 1445,2560C1427,2575 1426,2603 1441,2632C1455,2659 1437,2726 1409,2749C1391,2764 1390,2783 1387,3060L1385,3355L1360,3356C1309,3357 1310,3350 1310,3691L1310,4010L1286,4010C1273,4010 1260,4017 1256,4025C1253,4033 1240,4040 1226,4040C1168,4040 1170,4030 1170,4305C1170,4543 1169,4558 1151,4563C1136,4567 1132,4578 1131,4626C1130,4707 1122,4740 1105,4734C1098,4731 1090,4733 1086,4738C1083,4743 1079,4815 1077,4898C1071,5073 1058,5116 1048,4990C1043,4925 1023,4711 1020,4692C1020,4690 1016,4692 1010,4695C1005,4698 1000,4720 1000,4743C1000,4766 995,4801 989,4820C982,4839 974,4916 970,4990C967,5064 963,5121 962,5115Z" style="fill-rule:nonzero;"/>
            </g>
        </g>
    </g>
    <g id="_2858987.svg1" serif:id="2858987.svg" transform="matrix(-0.432031,0,0,0.188361,769.5,45)">
        <g transform="matrix(1,0,0,1,-640,-320)">
            <g transform="matrix(0.1,0,0,-0.1,0,640)">
                <path d="M962,5115C960,5110 955,5042 950,4965C946,4888 938,4801 934,4773C927,4718 910,4700 910,4747C910,4765 907,4771 900,4764C894,4758 887,4709 883,4655C878,4576 873,4552 858,4540C842,4526 840,4504 837,4290L835,4055L812,4052C798,4050 785,4038 779,4024C774,4010 770,3858 770,3685L770,3370L743,3364C727,3361 710,3357 704,3355C685,3349 680,3257 680,2915C680,2734 677,2575 674,2563C669,2546 660,2540 640,2540C622,2540 611,2534 608,2522C604,2508 591,2504 542,2503C508,2502 478,2505 475,2510C464,2528 440,2520 440,2500C440,2489 445,2480 450,2480C468,2480 461,2462 441,2455C430,2452 419,2436 415,2420C410,2397 403,2390 384,2390L359,2390L362,2698L365,3005L330,3011C303,3015 299,3018 313,3024C340,3037 333,3047 288,3062L245,3075L242,3278C240,3428 236,3487 226,3503C218,3515 210,3537 206,3552C203,3567 191,3584 180,3590C169,3596 160,3609 160,3620C160,3645 119,3666 52,3673L0,3679L0,2497C0,1847 3,1305 6,1293L12,1270L6330,1270C9804,1270 12680,1273 12721,1276L12795,1283L12792,2347C12790,3323 12788,3412 12774,3406C12744,3395 12730,3419 12730,3480C12730,3547 12726,3550 12624,3550C12581,3550 12559,3555 12550,3566C12533,3585 12438,3576 12400,3551C12366,3529 12209,3532 12173,3556C12152,3569 12143,3570 12122,3560C12108,3554 12044,3545 11981,3540C11917,3535 11804,3526 11730,3519C11565,3505 11569,3505 11547,3515C11530,3522 11529,3517 11531,3459C11534,3402 11532,3394 11512,3385C11491,3376 11491,3373 11488,3040C11485,2737 11483,2701 11466,2668C11456,2647 11444,2630 11439,2630C11434,2630 11430,2660 11430,2698C11431,2735 11428,2812 11425,2870C11422,2928 11417,3259 11415,3605C11412,3952 11408,4240 11406,4246C11404,4252 11375,4262 11342,4269C11295,4278 11281,4285 11277,4302C11272,4321 11269,4322 11254,4310C11240,4298 11236,4298 11223,4315C11207,4337 11162,4340 11011,4325C10944,4319 10926,4313 10923,4300C10920,4288 10898,4278 10852,4268C10796,4256 10785,4250 10787,4234C10788,4224 10792,3892 10796,3498C10803,2837 10802,2779 10786,2756C10770,2730 10737,2722 10714,2738C10701,2746 10701,2751 10697,3040C10694,3225 10692,3250 10672,3292C10661,3318 10646,3359 10640,3382C10626,3436 10587,3496 10561,3505C10532,3514 10494,3625 10485,3724C10484,3735 10478,3746 10472,3748C10464,3750 10460,3734 10460,3694C10460,3640 10455,3628 10385,3511C10312,3387 10276,3308 10287,3296C10291,3293 10286,3282 10277,3272C10263,3257 10260,3222 10258,3039L10255,2825L10165,2825L10162,3070C10161,3205 10156,3423 10152,3555L10145,3794L10095,3806L10092,3994C10090,4137 10087,4181 10077,4177C10068,4174 10064,4123 10062,3987L10060,3801L10023,3798C9993,3796 9985,3790 9980,3770C9975,3747 9970,3745 9911,3744C9873,3743 9845,3737 9840,3730C9836,3723 9835,3539 9838,3320C9841,3102 9840,2912 9837,2899C9831,2877 9825,2875 9763,2872C9673,2868 9662,2864 9658,2832L9655,2805L9556,2808C9485,2810 9451,2815 9440,2825C9419,2844 9356,2844 9340,2825C9332,2816 9311,2810 9284,2810C9213,2810 9206,2796 9214,2663C9217,2601 9218,2550 9215,2550C9212,2550 9193,2569 9172,2592C9027,2757 8996,2785 8958,2787C8922,2788 8920,2787 8857,2687C8821,2631 8787,2574 8780,2561C8769,2539 8766,2538 8755,2553C8748,2562 8728,2573 8710,2576C8693,2580 8667,2594 8653,2607C8628,2633 8626,2633 8518,2614L8482,2608L8478,2682C8476,2722 8479,2797 8484,2848C8490,2904 8490,2944 8484,2949C8479,2954 8452,2953 8423,2947C8378,2938 8365,2939 8334,2954C8298,2971 8297,2970 8274,2949C8257,2933 8244,2929 8225,2934C8200,2940 8199,2939 8205,2911C8212,2877 8192,2860 8141,2860C8114,2860 8111,2857 8108,2823C8106,2802 8101,2785 8095,2785C8090,2785 8027,2791 7955,2798C7848,2809 7807,2809 7725,2798L7625,2785L7628,2750C7630,2724 7626,2709 7611,2695C7599,2685 7585,2658 7579,2636C7564,2575 7546,2540 7535,2543C7521,2548 7510,2627 7517,2678C7522,2716 7519,2725 7494,2751C7470,2776 7459,2780 7409,2780C7350,2780 7322,2796 7333,2824C7336,2832 7333,2846 7326,2855C7316,2869 7294,2872 7172,2871C7025,2871 6964,2865 6943,2847C6934,2841 6930,2808 6930,2748C6930,2676 6927,2658 6914,2653C6905,2650 6894,2653 6889,2661C6884,2669 6880,2856 6880,3078C6880,3465 6879,3480 6861,3480C6835,3480 6822,3499 6818,3545C6816,3579 6812,3584 6795,3582C6784,3580 6726,3570 6665,3560C6593,3547 6552,3544 6544,3551C6524,3567 6519,3503 6521,3296C6523,3191 6520,3099 6516,3092C6511,3084 6516,3080 6532,3080C6555,3079 6555,3079 6535,3064C6516,3050 6516,3048 6533,3039C6555,3026 6557,2960 6535,2960C6526,2960 6520,2969 6520,2985C6520,3022 6500,3015 6499,2978C6499,2950 6497,2948 6490,2966C6483,2984 6440,3020 6426,3020C6423,3020 6419,3010 6417,2998L6413,2975L6411,2998C6410,3015 6404,3020 6381,3020C6356,3020 6351,3016 6348,2993C6345,2966 6344,2965 6285,2967C6227,2970 6103,2986 6067,2997C6057,2999 6045,3011 6041,3022C6035,3039 6023,3042 5935,3045C5870,3048 5834,3054 5828,3062C5822,3072 5818,3072 5812,3063C5808,3057 5791,3048 5775,3044C5758,3040 5741,3034 5735,3030C5730,3026 5664,3017 5590,3010C5495,3002 5453,2994 5447,2984C5434,2961 5423,2967 5375,3029C5312,3112 5303,3120 5270,3120C5255,3120 5240,3126 5237,3134C5234,3142 5219,3150 5203,3152L5175,3155L5172,3268C5169,3379 5169,3381 5143,3391C5105,3405 4790,3396 4759,3380C4746,3373 4709,3366 4677,3364C4624,3361 4582,3345 4595,3332C4598,3329 4594,3320 4587,3312C4578,3301 4575,3217 4575,2976L4575,2655L4546,2652C4530,2650 4513,2654 4508,2662C4503,2669 4500,2713 4502,2760L4505,2845L4463,2848C4434,2850 4417,2857 4411,2869C4403,2883 4383,2888 4309,2893C4258,2897 4211,2905 4204,2911C4193,2920 4190,2961 4190,3086C4190,3186 4186,3251 4180,3255C4174,3259 4126,3266 4072,3271C4019,3277 3951,3288 3923,3296C3894,3304 3847,3314 3818,3317C3789,3320 3761,3329 3757,3336C3747,3354 3723,3354 3713,3336C3709,3329 3687,3320 3665,3317C3520,3297 3432,3283 3422,3276C3413,3271 3410,3189 3410,2960C3410,2632 3407,2612 3366,2662C3354,2676 3336,2690 3325,2692C3311,2694 3302,2707 3296,2736C3288,2774 3283,2778 3256,2779C3239,2780 3216,2781 3205,2782C3194,2783 3175,2780 3162,2776C3141,2769 3140,2771 3140,2818C3140,2850 3135,2872 3125,2880C3117,2887 3110,2909 3110,2930L3110,2968L3053,2972C3017,2975 2980,2972 2956,2964C2935,2956 2899,2950 2876,2950C2812,2950 2691,2924 2671,2906C2653,2890 2652,2896 2645,3087L2638,3285L2606,3285C2581,3285 2575,3289 2577,3304C2578,3315 2568,3337 2554,3353C2536,3375 2530,3393 2530,3431C2530,3458 2526,3480 2520,3480C2515,3480 2510,3498 2510,3520C2510,3542 2506,3560 2500,3560C2490,3560 2484,3489 2488,3409C2491,3351 2468,3336 2398,3352C2358,3362 2351,3367 2346,3394C2343,3411 2333,3452 2326,3485L2312,3545L2311,3458C2310,3377 2308,3369 2286,3354C2270,3344 2260,3327 2258,3307C2255,3280 2251,3275 2229,3275C2202,3276 2202,3274 2194,3190C2190,3143 2186,3052 2186,2987C2185,2885 2183,2867 2168,2859C2152,2850 2150,2831 2150,2694C2150,2574 2147,2539 2138,2542C2129,2545 2124,2581 2122,2666C2121,2731 2115,2789 2110,2794C2104,2800 2100,2818 2100,2836C2100,2853 2094,2872 2088,2878C2065,2897 1884,2913 1829,2901C1802,2895 1753,2890 1722,2890C1691,2890 1660,2886 1654,2882C1646,2876 1638,2771 1640,2690C1642,2623 1637,2454 1634,2448C1627,2437 1488,2450 1473,2463C1466,2468 1460,2489 1460,2510C1460,2531 1453,2553 1445,2560C1427,2575 1426,2603 1441,2632C1455,2659 1437,2726 1409,2749C1391,2764 1390,2783 1387,3060L1385,3355L1360,3356C1309,3357 1310,3350 1310,3691L1310,4010L1286,4010C1273,4010 1260,4017 1256,4025C1253,4033 1240,4040 1226,4040C1168,4040 1170,4030 1170,4305C1170,4543 1169,4558 1151,4563C1136,4567 1132,4578 1131,4626C1130,4707 1122,4740 1105,4734C1098,4731 1090,4733 1086,4738C1083,4743 1079,4815 1077,4898C1071,5073 1058,5116 1048,4990C1043,4925 1023,4711 1020,4692C1020,4690 1016,4692 1010,4695C1005,4698 1000,4720 1000,4743C1000,4766 995,4801 989,4820C982,4839 974,4916 970,4990C967,5064 963,5121 962,5115Z" style="fill-rule:nonzero;"/>
            </g>
        </g>
    </g>
    <g id="_2858987.svg2" serif:id="2858987.svg" transform="matrix(-0.432031,0,0,0.188361,1322.5,43)">
        <g transform="matrix(1,0,0,1,-640,-320)">
            <g transform="matrix(0.1,0,0,-0.1,0,640)">
                <path d="M962,5115C960,5110 955,5042 950,4965C946,4888 938,4801 934,4773C927,4718 910,4700 910,4747C910,4765 907,4771 900,4764C894,4758 887,4709 883,4655C878,4576 873,4552 858,4540C842,4526 840,4504 837,4290L835,4055L812,4052C798,4050 785,4038 779,4024C774,4010 770,3858 770,3685L770,3370L743,3364C727,3361 710,3357 704,3355C685,3349 680,3257 680,2915C680,2734 677,2575 674,2563C669,2546 660,2540 640,2540C622,2540 611,2534 608,2522C604,2508 591,2504 542,2503C508,2502 478,2505 475,2510C464,2528 440,2520 440,2500C440,2489 445,2480 450,2480C468,2480 461,2462 441,2455C430,2452 419,2436 415,2420C410,2397 403,2390 384,2390L359,2390L362,2698L365,3005L330,3011C303,3015 299,3018 313,3024C340,3037 333,3047 288,3062L245,3075L242,3278C240,3428 236,3487 226,3503C218,3515 210,3537 206,3552C203,3567 191,3584 180,3590C169,3596 160,3609 160,3620C160,3645 119,3666 52,3673L0,3679L0,2497C0,1847 3,1305 6,1293L12,1270L6330,1270C9804,1270 12680,1273 12721,1276L12795,1283L12792,2347C12790,3323 12788,3412 12774,3406C12744,3395 12730,3419 12730,3480C12730,3547 12726,3550 12624,3550C12581,3550 12559,3555 12550,3566C12533,3585 12438,3576 12400,3551C12366,3529 12209,3532 12173,3556C12152,3569 12143,3570 12122,3560C12108,3554 12044,3545 11981,3540C11917,3535 11804,3526 11730,3519C11565,3505 11569,3505 11547,3515C11530,3522 11529,3517 11531,3459C11534,3402 11532,3394 11512,3385C11491,3376 11491,3373 11488,3040C11485,2737 11483,2701 11466,2668C11456,2647 11444,2630 11439,2630C11434,2630 11430,2660 11430,2698C11431,2735 11428,2812 11425,2870C11422,2928 11417,3259 11415,3605C11412,3952 11408,4240 11406,4246C11404,4252 11375,4262 11342,4269C11295,4278 11281,4285 11277,4302C11272,4321 11269,4322 11254,4310C11240,4298 11236,4298 11223,4315C11207,4337 11162,4340 11011,4325C10944,4319 10926,4313 10923,4300C10920,4288 10898,4278 10852,4268C10796,4256 10785,4250 10787,4234C10788,4224 10792,3892 10796,3498C10803,2837 10802,2779 10786,2756C10770,2730 10737,2722 10714,2738C10701,2746 10701,2751 10697,3040C10694,3225 10692,3250 10672,3292C10661,3318 10646,3359 10640,3382C10626,3436 10587,3496 10561,3505C10532,3514 10494,3625 10485,3724C10484,3735 10478,3746 10472,3748C10464,3750 10460,3734 10460,3694C10460,3640 10455,3628 10385,3511C10312,3387 10276,3308 10287,3296C10291,3293 10286,3282 10277,3272C10263,3257 10260,3222 10258,3039L10255,2825L10165,2825L10162,3070C10161,3205 10156,3423 10152,3555L10145,3794L10095,3806L10092,3994C10090,4137 10087,4181 10077,4177C10068,4174 10064,4123 10062,3987L10060,3801L10023,3798C9993,3796 9985,3790 9980,3770C9975,3747 9970,3745 9911,3744C9873,3743 9845,3737 9840,3730C9836,3723 9835,3539 9838,3320C9841,3102 9840,2912 9837,2899C9831,2877 9825,2875 9763,2872C9673,2868 9662,2864 9658,2832L9655,2805L9556,2808C9485,2810 9451,2815 9440,2825C9419,2844 9356,2844 9340,2825C9332,2816 9311,2810 9284,2810C9213,2810 9206,2796 9214,2663C9217,2601 9218,2550 9215,2550C9212,2550 9193,2569 9172,2592C9027,2757 8996,2785 8958,2787C8922,2788 8920,2787 8857,2687C8821,2631 8787,2574 8780,2561C8769,2539 8766,2538 8755,2553C8748,2562 8728,2573 8710,2576C8693,2580 8667,2594 8653,2607C8628,2633 8626,2633 8518,2614L8482,2608L8478,2682C8476,2722 8479,2797 8484,2848C8490,2904 8490,2944 8484,2949C8479,2954 8452,2953 8423,2947C8378,2938 8365,2939 8334,2954C8298,2971 8297,2970 8274,2949C8257,2933 8244,2929 8225,2934C8200,2940 8199,2939 8205,2911C8212,2877 8192,2860 8141,2860C8114,2860 8111,2857 8108,2823C8106,2802 8101,2785 8095,2785C8090,2785 8027,2791 7955,2798C7848,2809 7807,2809 7725,2798L7625,2785L7628,2750C7630,2724 7626,2709 7611,2695C7599,2685 7585,2658 7579,2636C7564,2575 7546,2540 7535,2543C7521,2548 7510,2627 7517,2678C7522,2716 7519,2725 7494,2751C7470,2776 7459,2780 7409,2780C7350,2780 7322,2796 7333,2824C7336,2832 7333,2846 7326,2855C7316,2869 7294,2872 7172,2871C7025,2871 6964,2865 6943,2847C6934,2841 6930,2808 6930,2748C6930,2676 6927,2658 6914,2653C6905,2650 6894,2653 6889,2661C6884,2669 6880,2856 6880,3078C6880,3465 6879,3480 6861,3480C6835,3480 6822,3499 6818,3545C6816,3579 6812,3584 6795,3582C6784,3580 6726,3570 6665,3560C6593,3547 6552,3544 6544,3551C6524,3567 6519,3503 6521,3296C6523,3191 6520,3099 6516,3092C6511,3084 6516,3080 6532,3080C6555,3079 6555,3079 6535,3064C6516,3050 6516,3048 6533,3039C6555,3026 6557,2960 6535,2960C6526,2960 6520,2969 6520,2985C6520,3022 6500,3015 6499,2978C6499,2950 6497,2948 6490,2966C6483,2984 6440,3020 6426,3020C6423,3020 6419,3010 6417,2998L6413,2975L6411,2998C6410,3015 6404,3020 6381,3020C6356,3020 6351,3016 6348,2993C6345,2966 6344,2965 6285,2967C6227,2970 6103,2986 6067,2997C6057,2999 6045,3011 6041,3022C6035,3039 6023,3042 5935,3045C5870,3048 5834,3054 5828,3062C5822,3072 5818,3072 5812,3063C5808,3057 5791,3048 5775,3044C5758,3040 5741,3034 5735,3030C5730,3026 5664,3017 5590,3010C5495,3002 5453,2994 5447,2984C5434,2961 5423,2967 5375,3029C5312,3112 5303,3120 5270,3120C5255,3120 5240,3126 5237,3134C5234,3142 5219,3150 5203,3152L5175,3155L5172,3268C5169,3379 5169,3381 5143,3391C5105,3405 4790,3396 4759,3380C4746,3373 4709,3366 4677,3364C4624,3361 4582,3345 4595,3332C4598,3329 4594,3320 4587,3312C4578,3301 4575,3217 4575,2976L4575,2655L4546,2652C4530,2650 4513,2654 4508,2662C4503,2669 4500,2713 4502,2760L4505,2845L4463,2848C4434,2850 4417,2857 4411,2869C4403,2883 4383,2888 4309,2893C4258,2897 4211,2905 4204,2911C4193,2920 4190,2961 4190,3086C4190,3186 4186,3251 4180,3255C4174,3259 4126,3266 4072,3271C4019,3277 3951,3288 3923,3296C3894,3304 3847,3314 3818,3317C3789,3320 3761,3329 3757,3336C3747,3354 3723,3354 3713,3336C3709,3329 3687,3320 3665,3317C3520,3297 3432,3283 3422,3276C3413,3271 3410,3189 3410,2960C3410,2632 3407,2612 3366,2662C3354,2676 3336,2690 3325,2692C3311,2694 3302,2707 3296,2736C3288,2774 3283,2778 3256,2779C3239,2780 3216,2781 3205,2782C3194,2783 3175,2780 3162,2776C3141,2769 3140,2771 3140,2818C3140,2850 3135,2872 3125,2880C3117,2887 3110,2909 3110,2930L3110,2968L3053,2972C3017,2975 2980,2972 2956,2964C2935,2956 2899,2950 2876,2950C2812,2950 2691,2924 2671,2906C2653,2890 2652,2896 2645,3087L2638,3285L2606,3285C2581,3285 2575,3289 2577,3304C2578,3315 2568,3337 2554,3353C2536,3375 2530,3393 2530,3431C2530,3458 2526,3480 2520,3480C2515,3480 2510,3498 2510,3520C2510,3542 2506,3560 2500,3560C2490,3560 2484,3489 2488,3409C2491,3351 2468,3336 2398,3352C2358,3362 2351,3367 2346,3394C2343,3411 2333,3452 2326,3485L2312,3545L2311,3458C2310,3377 2308,3369 2286,3354C2270,3344 2260,3327 2258,3307C2255,3280 2251,3275 2229,3275C2202,3276 2202,3274 2194,3190C2190,3143 2186,3052 2186,2987C2185,2885 2183,2867 2168,2859C2152,2850 2150,2831 2150,2694C2150,2574 2147,2539 2138,2542C2129,2545 2124,2581 2122,2666C2121,2731 2115,2789 2110,2794C2104,2800 2100,2818 2100,2836C2100,2853 2094,2872 2088,2878C2065,2897 1884,2913 1829,2901C1802,2895 1753,2890 1722,2890C1691,2890 1660,2886 1654,2882C1646,2876 1638,2771 1640,2690C1642,2623 1637,2454 1634,2448C1627,2437 1488,2450 1473,2463C1466,2468 1460,2489 1460,2510C1460,2531 1453,2553 1445,2560C1427,2575 1426,2603 1441,2632C1455,2659 1437,2726 1409,2749C1391,2764 1390,2783 1387,3060L1385,3355L1360,3356C1309,3357 1310,3350 1310,3691L1310,4010L1286,4010C1273,4010 1260,4017 1256,4025C1253,4033 1240,4040 1226,4040C1168,4040 1170,4030 1170,4305C1170,4543 1169,4558 1151,4563C1136,4567 1132,4578 1131,4626C1130,4707 1122,4740 1105,4734C1098,4731 1090,4733 1086,4738C1083,4743 1079,4815 1077,4898C1071,5073 1058,5116 1048,4990C1043,4925 1023,4711 1020,4692C1020,4690 1016,4692 1010,4695C1005,4698 1000,4720 1000,4743C1000,4766 995,4801 989,4820C982,4839 974,4916 970,4990C967,5064 963,5121 962,5115Z" style="fill-rule:nonzero;"/>
            </g>
        </g>
    </g>
    <g id="_2858987.svg3" serif:id="2858987.svg" transform="matrix(0.432031,0,0,0.188361,277,43)">
        <g transform="matrix(1,0,0,1,-640,-320)">
            <g transform="matrix(0.1,0,0,-0.1,0,640)">
                <path d="M962,5115C960,5110 955,5042 950,4965C946,4888 938,4801 934,4773C927,4718 910,4700 910,4747C910,4765 907,4771 900,4764C894,4758 887,4709 883,4655C878,4576 873,4552 858,4540C842,4526 840,4504 837,4290L835,4055L812,4052C798,4050 785,4038 779,4024C774,4010 770,3858 770,3685L770,3370L743,3364C727,3361 710,3357 704,3355C685,3349 680,3257 680,2915C680,2734 677,2575 674,2563C669,2546 660,2540 640,2540C622,2540 611,2534 608,2522C604,2508 591,2504 542,2503C508,2502 478,2505 475,2510C464,2528 440,2520 440,2500C440,2489 445,2480 450,2480C468,2480 461,2462 441,2455C430,2452 419,2436 415,2420C410,2397 403,2390 384,2390L359,2390L362,2698L365,3005L330,3011C303,3015 299,3018 313,3024C340,3037 333,3047 288,3062L245,3075L242,3278C240,3428 236,3487 226,3503C218,3515 210,3537 206,3552C203,3567 191,3584 180,3590C169,3596 160,3609 160,3620C160,3645 119,3666 52,3673L0,3679L0,2497C0,1847 3,1305 6,1293L12,1270L6330,1270C9804,1270 12680,1273 12721,1276L12795,1283L12792,2347C12790,3323 12788,3412 12774,3406C12744,3395 12730,3419 12730,3480C12730,3547 12726,3550 12624,3550C12581,3550 12559,3555 12550,3566C12533,3585 12438,3576 12400,3551C12366,3529 12209,3532 12173,3556C12152,3569 12143,3570 12122,3560C12108,3554 12044,3545 11981,3540C11917,3535 11804,3526 11730,3519C11565,3505 11569,3505 11547,3515C11530,3522 11529,3517 11531,3459C11534,3402 11532,3394 11512,3385C11491,3376 11491,3373 11488,3040C11485,2737 11483,2701 11466,2668C11456,2647 11444,2630 11439,2630C11434,2630 11430,2660 11430,2698C11431,2735 11428,2812 11425,2870C11422,2928 11417,3259 11415,3605C11412,3952 11408,4240 11406,4246C11404,4252 11375,4262 11342,4269C11295,4278 11281,4285 11277,4302C11272,4321 11269,4322 11254,4310C11240,4298 11236,4298 11223,4315C11207,4337 11162,4340 11011,4325C10944,4319 10926,4313 10923,4300C10920,4288 10898,4278 10852,4268C10796,4256 10785,4250 10787,4234C10788,4224 10792,3892 10796,3498C10803,2837 10802,2779 10786,2756C10770,2730 10737,2722 10714,2738C10701,2746 10701,2751 10697,3040C10694,3225 10692,3250 10672,3292C10661,3318 10646,3359 10640,3382C10626,3436 10587,3496 10561,3505C10532,3514 10494,3625 10485,3724C10484,3735 10478,3746 10472,3748C10464,3750 10460,3734 10460,3694C10460,3640 10455,3628 10385,3511C10312,3387 10276,3308 10287,3296C10291,3293 10286,3282 10277,3272C10263,3257 10260,3222 10258,3039L10255,2825L10165,2825L10162,3070C10161,3205 10156,3423 10152,3555L10145,3794L10095,3806L10092,3994C10090,4137 10087,4181 10077,4177C10068,4174 10064,4123 10062,3987L10060,3801L10023,3798C9993,3796 9985,3790 9980,3770C9975,3747 9970,3745 9911,3744C9873,3743 9845,3737 9840,3730C9836,3723 9835,3539 9838,3320C9841,3102 9840,2912 9837,2899C9831,2877 9825,2875 9763,2872C9673,2868 9662,2864 9658,2832L9655,2805L9556,2808C9485,2810 9451,2815 9440,2825C9419,2844 9356,2844 9340,2825C9332,2816 9311,2810 9284,2810C9213,2810 9206,2796 9214,2663C9217,2601 9218,2550 9215,2550C9212,2550 9193,2569 9172,2592C9027,2757 8996,2785 8958,2787C8922,2788 8920,2787 8857,2687C8821,2631 8787,2574 8780,2561C8769,2539 8766,2538 8755,2553C8748,2562 8728,2573 8710,2576C8693,2580 8667,2594 8653,2607C8628,2633 8626,2633 8518,2614L8482,2608L8478,2682C8476,2722 8479,2797 8484,2848C8490,2904 8490,2944 8484,2949C8479,2954 8452,2953 8423,2947C8378,2938 8365,2939 8334,2954C8298,2971 8297,2970 8274,2949C8257,2933 8244,2929 8225,2934C8200,2940 8199,2939 8205,2911C8212,2877 8192,2860 8141,2860C8114,2860 8111,2857 8108,2823C8106,2802 8101,2785 8095,2785C8090,2785 8027,2791 7955,2798C7848,2809 7807,2809 7725,2798L7625,2785L7628,2750C7630,2724 7626,2709 7611,2695C7599,2685 7585,2658 7579,2636C7564,2575 7546,2540 7535,2543C7521,2548 7510,2627 7517,2678C7522,2716 7519,2725 7494,2751C7470,2776 7459,2780 7409,2780C7350,2780 7322,2796 7333,2824C7336,2832 7333,2846 7326,2855C7316,2869 7294,2872 7172,2871C7025,2871 6964,2865 6943,2847C6934,2841 6930,2808 6930,2748C6930,2676 6927,2658 6914,2653C6905,2650 6894,2653 6889,2661C6884,2669 6880,2856 6880,3078C6880,3465 6879,3480 6861,3480C6835,3480 6822,3499 6818,3545C6816,3579 6812,3584 6795,3582C6784,3580 6726,3570 6665,3560C6593,3547 6552,3544 6544,3551C6524,3567 6519,3503 6521,3296C6523,3191 6520,3099 6516,3092C6511,3084 6516,3080 6532,3080C6555,3079 6555,3079 6535,3064C6516,3050 6516,3048 6533,3039C6555,3026 6557,2960 6535,2960C6526,2960 6520,2969 6520,2985C6520,3022 6500,3015 6499,2978C6499,2950 6497,2948 6490,2966C6483,2984 6440,3020 6426,3020C6423,3020 6419,3010 6417,2998L6413,2975L6411,2998C6410,3015 6404,3020 6381,3020C6356,3020 6351,3016 6348,2993C6345,2966 6344,2965 6285,2967C6227,2970 6103,2986 6067,2997C6057,2999 6045,3011 6041,3022C6035,3039 6023,3042 5935,3045C5870,3048 5834,3054 5828,3062C5822,3072 5818,3072 5812,3063C5808,3057 5791,3048 5775,3044C5758,3040 5741,3034 5735,3030C5730,3026 5664,3017 5590,3010C5495,3002 5453,2994 5447,2984C5434,2961 5423,2967 5375,3029C5312,3112 5303,3120 5270,3120C5255,3120 5240,3126 5237,3134C5234,3142 5219,3150 5203,3152L5175,3155L5172,3268C5169,3379 5169,3381 5143,3391C5105,3405 4790,3396 4759,3380C4746,3373 4709,3366 4677,3364C4624,3361 4582,3345 4595,3332C4598,3329 4594,3320 4587,3312C4578,3301 4575,3217 4575,2976L4575,2655L4546,2652C4530,2650 4513,2654 4508,2662C4503,2669 4500,2713 4502,2760L4505,2845L4463,2848C4434,2850 4417,2857 4411,2869C4403,2883 4383,2888 4309,2893C4258,2897 4211,2905 4204,2911C4193,2920 4190,2961 4190,3086C4190,3186 4186,3251 4180,3255C4174,3259 4126,3266 4072,3271C4019,3277 3951,3288 3923,3296C3894,3304 3847,3314 3818,3317C3789,3320 3761,3329 3757,3336C3747,3354 3723,3354 3713,3336C3709,3329 3687,3320 3665,3317C3520,3297 3432,3283 3422,3276C3413,3271 3410,3189 3410,2960C3410,2632 3407,2612 3366,2662C3354,2676 3336,2690 3325,2692C3311,2694 3302,2707 3296,2736C3288,2774 3283,2778 3256,2779C3239,2780 3216,2781 3205,2782C3194,2783 3175,2780 3162,2776C3141,2769 3140,2771 3140,2818C3140,2850 3135,2872 3125,2880C3117,2887 3110,2909 3110,2930L3110,2968L3053,2972C3017,2975 2980,2972 2956,2964C2935,2956 2899,2950 2876,2950C2812,2950 2691,2924 2671,2906C2653,2890 2652,2896 2645,3087L2638,3285L2606,3285C2581,3285 2575,3289 2577,3304C2578,3315 2568,3337 2554,3353C2536,3375 2530,3393 2530,3431C2530,3458 2526,3480 2520,3480C2515,3480 2510,3498 2510,3520C2510,3542 2506,3560 2500,3560C2490,3560 2484,3489 2488,3409C2491,3351 2468,3336 2398,3352C2358,3362 2351,3367 2346,3394C2343,3411 2333,3452 2326,3485L2312,3545L2311,3458C2310,3377 2308,3369 2286,3354C2270,3344 2260,3327 2258,3307C2255,3280 2251,3275 2229,3275C2202,3276 2202,3274 2194,3190C2190,3143 2186,3052 2186,2987C2185,2885 2183,2867 2168,2859C2152,2850 2150,2831 2150,2694C2150,2574 2147,2539 2138,2542C2129,2545 2124,2581 2122,2666C2121,2731 2115,2789 2110,2794C2104,2800 2100,2818 2100,2836C2100,2853 2094,2872 2088,2878C2065,2897 1884,2913 1829,2901C1802,2895 1753,2890 1722,2890C1691,2890 1660,2886 1654,2882C1646,2876 1638,2771 1640,2690C1642,2623 1637,2454 1634,2448C1627,2437 1488,2450 1473,2463C1466,2468 1460,2489 1460,2510C1460,2531 1453,2553 1445,2560C1427,2575 1426,2603 1441,2632C1455,2659 1437,2726 1409,2749C1391,2764 1390,2783 1387,3060L1385,3355L1360,3356C1309,3357 1310,3350 1310,3691L1310,4010L1286,4010C1273,4010 1260,4017 1256,4025C1253,4033 1240,4040 1226,4040C1168,4040 1170,4030 1170,4305C1170,4543 1169,4558 1151,4563C1136,4567 1132,4578 1131,4626C1130,4707 1122,4740 1105,4734C1098,4731 1090,4733 1086,4738C1083,4743 1079,4815 1077,4898C1071,5073 1058,5116 1048,4990C1043,4925 1023,4711 1020,4692C1020,4690 1016,4692 1010,4695C1005,4698 1000,4720 1000,4743C1000,4766 995,4801 989,4820C982,4839 974,4916 970,4990C967,5064 963,5121 962,5115Z" style="fill-rule:nonzero;"/>
            </g>
        </g>
    </g>
    <svg xmlns="http://www.w3.org/2000/svg" viewBox="0 0 1200 40" preserveAspectRatio="none">
        <defs>
            <linearGradient id="cityGradient" x1="0%" y1="0%" x2="0%" y2="100%">
                <stop offset="0%" style="stop-color:#3B3B3B;stop-opacity:1" />
                <stop offset="100%" style="stop-color:#3B3B3B;stop-opacity:1" />
            </linearGradient>
        </defs>
        
        <path 
            d="M0 30 
            L100 20 Q200 15 300 25 
            L500 10 Q600 20 700 15 
            L900 25 Q1000 20 1100 25 
            L1200 30 
            V40 H0 Z" 
            fill="url(#cityGradient)"
        />
        
        <g fill="rgba(255,255,255,0.1)">
            <rect x="50" y="20" width="10" height="20"/>
            <rect x="150" y="15" width="15" height="25"/>
            <rect x="250" y="22" width="20" height="18"/>
            <rect x="350" y="18" width="15" height="22"/>
            <rect x="450" y="16" width="20" height="24"/>
            <rect x="550" y="21" width="15" height="19"/>
            <rect x="650" y="17" width="20" height="23"/>
            <rect x="750" y="19" width="15" height="21"/>
            <rect x="850" y="22" width="20" height="18"/>
            <rect x="950" y="16" width="15" height="24"/>
            <rect x="1050" y="20" width="20" height="20"/>
        </g>
    </svg>
</svg>
