<svg xmlns="http://www.w3.org/2000/svg" viewBox="0 0 1200 300" preserveAspectRatio="none">
    <defs>
        <linearGradient id="cityGradient" x1="0%" y1="0%" x2="0%" y2="100%">
            <stop offset="0%" style="stop-color:rgba(0,0,0,0.7);stop-opacity:1" />
            <stop offset="100%" style="stop-color:rgba(0,0,0,0.9);stop-opacity:1" />
        </linearGradient>
    </defs>
    
    <path 
        d="M0 250 
        L50 180 Q100 150 150 190 
        L200 250 Q250 220 300 240 
        L350 280 Q400 260 450 270 
        L500 230 Q550 200 600 230 
        L650 280 Q700 260 750 270 
        L800 210 Q850 180 900 210 
        L950 280 Q1000 260 1050 270 
        L1100 240 Q1150 210 1200 240 
        V300 H0 Z" 
        fill="url(#cityGradient)"
    />
    
    <g fill="rgba(255,255,255,0.1)">
        <!-- Buildings from first SVG -->
        <rect x="80" y="200" width="30" height="80"/>
        <rect x="130" y="180" width="40" height="120"/>
        <rect x="250" y="220" width="50" height="80"/>
        <rect x="350" y="240" width="40" height="60"/>
        <rect x="500" y="210" width="60" height="90"/>
        <rect x="650" y="230" width="45" height="70"/>
        <rect x="800" y="190" width="55" height="110"/>
        <rect x="950" y="240" width="35" height="60"/>
        <rect x="1100" y="220" width="50" height="80"/>
        
        <!-- Additional details from other SVGs -->
        <rect x="200" y="150" width="25" height="100" fill="rgba(255,255,255,0.05)"/>
        <rect x="300" y="170" width="35" height="80" fill="rgba(255,255,255,0.05)"/>
        <rect x="450" y="190" width="40" height="70" fill="rgba(255,255,255,0.05)"/>
        <rect x="600" y="160" width="30" height="90" fill="rgba(255,255,255,0.05)"/>
        <rect x="750" y="180" width="35" height="80" fill="rgba(255,255,255,0.05)"/>
        <rect x="900" y="170" width="40" height="85" fill="rgba(255,255,255,0.05)"/>
    </g>
    
    <!-- Subtle window-like details -->
    <g fill="rgba(255,255,255,0.05)">
        <rect x="90" y="220" width="10" height="15"/>
        <rect x="140" y="200" width="10" height="15"/>
        <rect x="260" y="240" width="10" height="15"/>
        <rect x="360" y="255" width="10" height="15"/>
        <rect x="520" y="230" width="10" height="15"/>
        <rect x="660" y="245" width="10" height="15"/>
        <rect x="820" y="210" width="10" height="15"/>
        <rect x="960" y="255" width="10" height="15"/>
        <rect x="1120" y="240" width="10" height="15"/>
    </g>
</svg>