<?xml version="1.0" encoding="UTF-8" standalone="no"?>
<!DOCTYPE svg PUBLIC "-//W3C//DTD SVG 1.1//EN" "http://www.w3.org/Graphics/SVG/1.1/DTD/svg11.dtd">
<svg width="100%" height="100%" viewBox="0 0 320 600" version="1.1" xmlns="http://www.w3.org/2000/svg" xmlns:xlink="http://www.w3.org/1999/xlink" xml:space="preserve" xmlns:serif="http://www.serif.com/" style="fill-rule:evenodd;clip-rule:evenodd;stroke-linejoin:round;stroke-miterlimit:2;">
    <g id="Objects" transform="matrix(0.325047,0,0,0.341302,-197.552,-48.1748)">
        <g transform="matrix(5.23853,0,0,4.56444,-736.292,-30.1946)">
            <g transform="matrix(1,0,0,1,-0.989877,-7.10543e-14)">
                <g>
                    <g>
                        <g>
                            <g>
                                <g>
                                    <g>
                                        <g>
                                            <g>
                                                <g>
                                                    <path d="M416.905,422.684L286.049,422.606C270.311,422.598 257.558,409.835 257.561,394.097L257.625,66.038C257.628,50.291 270.399,37.53 286.146,37.539L417.003,37.616C432.741,37.626 445.493,50.388 445.49,66.126L445.426,394.186C445.423,409.932 432.652,422.694 416.905,422.684Z" style="fill:rgb(38,50,56);fill-rule:nonzero;"/>
                                                </g>
                                            </g>
                                        </g>
                                    </g>
                                </g>
                            </g>
                            <g>
                                <g>
                                    <g>
                                        <g>
                                            <g>
                                                <g>
                                                    <path d="M416.864,49.219L391.493,49.204C388.091,49.202 385.331,52.085 385.332,55.641L385.33,60.243C385.33,63.8 382.571,66.682 379.169,66.68L329.716,66.651C326.314,66.649 323.556,63.764 323.557,60.207L323.558,55.605C323.558,52.048 320.8,49.163 317.398,49.161L308.475,49.155L286.269,49.142C275.241,49.136 266.297,58.073 266.295,69.101L266.232,389.31C266.23,400.333 275.161,409.271 286.183,409.278L416.778,409.354C427.805,409.361 436.749,400.424 436.752,389.395L436.815,69.185C436.817,58.164 427.886,49.226 416.864,49.219Z" style="fill:white;fill-rule:nonzero;"/>
                                                </g>
                                            </g>
                                        </g>
                                    </g>
                                </g>
                            </g>
                        </g>
                    </g>
                </g>
            </g>
            <g transform="matrix(1,0,0,1,-2.38488,82.667)">
                <g>
                    <g>
                        <g>
                            <path d="M294.143,214.684L294.143,227.066L300.334,227.066L300.334,214.684L294.143,214.684Z" style="fill:rgb(38,50,56);fill-rule:nonzero;"/>
                        </g>
                    </g>
                    <g>
                        <g>
                            <rect x="294.143" y="183.728" width="6.191" height="6.191" style="fill:rgb(38,50,56);"/>
                        </g>
                    </g>
                    <g>
                        <g>
                            <rect x="332.401" y="251.894" width="6.191" height="6.191" style="fill:rgb(38,50,56);"/>
                        </g>
                    </g>
                    <g>
                        <g>
                            <path d="M300.334,189.919L300.334,202.301L294.143,202.301L294.143,208.493L300.334,208.493L300.334,214.684L312.716,214.684L312.716,220.875L318.908,220.875L318.908,214.684L325.099,214.684L325.099,202.301L318.908,202.301L318.908,208.493L306.525,208.493L306.525,189.919L300.334,189.919Z" style="fill:rgb(38,50,56);fill-rule:nonzero;"/>
                        </g>
                    </g>
                    <g>
                        <g>
                            <path d="M318.908,183.728L306.525,183.728L306.525,189.919L318.908,189.919L318.908,183.728Z" style="fill:rgb(38,50,56);fill-rule:nonzero;"/>
                        </g>
                    </g>
                    <g>
                        <g>
                            <path d="M337.251,233.499L343.904,233.499L343.904,227.308L337.251,227.308L337.251,233.499Z" style="fill:rgb(38,50,56);fill-rule:nonzero;"/>
                        </g>
                    </g>
                    <g>
                        <g>
                            <rect x="318.908" y="189.919" width="6.191" height="6.191" style="fill:rgb(38,50,56);"/>
                        </g>
                    </g>
                    <g>
                        <g>
                            <rect x="362.246" y="214.684" width="6.191" height="6.191" style="fill:rgb(38,50,56);"/>
                        </g>
                    </g>
                    <g>
                        <g>
                            <rect x="368.438" y="146.581" width="6.191" height="6.191" style="fill:rgb(38,50,56);"/>
                        </g>
                    </g>
                    <g>
                        <g>
                            <path d="M337.481,196.11L337.481,189.919L343.673,189.919L343.673,183.728L337.481,183.728L337.481,177.537L331.29,177.537L331.29,183.728L325.099,183.728L325.099,189.919L331.29,189.919L331.29,214.684L337.481,214.684L337.481,202.301L343.673,202.301L343.673,196.11L337.481,196.11Z" style="fill:rgb(38,50,56);fill-rule:nonzero;"/>
                        </g>
                    </g>
                    <g>
                        <g>
                            <path d="M362.246,258.022L374.629,258.022L374.629,251.831L362.246,251.831L362.246,258.022Z" style="fill:rgb(38,50,56);fill-rule:nonzero;"/>
                        </g>
                    </g>
                    <g>
                        <g>
                            <rect x="356.055" y="146.581" width="6.191" height="6.191" style="fill:rgb(38,50,56);"/>
                        </g>
                    </g>
                    <g>
                        <g>
                            <path d="M360.698,196.11L360.698,189.919L354.507,189.919L354.507,183.728L348.316,183.728L348.316,196.11L342.125,196.11L342.125,202.301L354.507,202.301L354.507,196.11L360.698,196.11Z" style="fill:rgb(38,50,56);fill-rule:nonzero;"/>
                        </g>
                    </g>
                    <g>
                        <g>
                            <rect x="389.452" y="183.728" width="6.191" height="6.191" style="fill:rgb(38,50,56);"/>
                        </g>
                    </g>
                    <g>
                        <g>
                            <rect x="325.277" y="214.684" width="6.191" height="6.191" style="fill:rgb(38,50,56);"/>
                        </g>
                    </g>
                    <g>
                        <g>
                            <path d="M356.055,177.537L356.055,171.346L362.246,171.346L362.246,165.154L374.629,165.154L374.629,158.963L368.438,158.963L368.438,152.772L362.246,152.772L362.246,158.963L356.055,158.963L356.055,165.154L349.864,165.154L349.864,171.346L343.673,171.346L343.673,177.537L356.055,177.537Z" style="fill:rgb(38,50,56);fill-rule:nonzero;"/>
                        </g>
                    </g>
                    <g>
                        <g>
                            <path d="M356.055,220.875L356.055,214.684L362.246,214.684L362.246,208.493L349.864,208.493L349.864,214.684L343.673,214.684L343.673,220.875L356.055,220.875Z" style="fill:rgb(38,50,56);fill-rule:nonzero;"/>
                        </g>
                    </g>
                    <g>
                        <g>
                            <path d="M374.629,245.637L374.629,239.445L362.246,239.445L362.246,233.254L356.055,233.254L356.055,239.445L349.864,239.445L349.864,245.637L337.481,245.637L337.481,251.828L356.055,251.828L356.055,245.637L362.246,245.637L362.246,251.828L368.438,251.828L368.438,245.637L374.629,245.637Z" style="fill:rgb(38,50,56);fill-rule:nonzero;"/>
                        </g>
                    </g>
                    <g>
                        <g>
                            <path d="M349.864,152.772L349.864,146.581L337.481,146.581L337.481,152.772L331.29,152.772L331.29,158.963L343.673,158.963L343.673,152.772L349.864,152.772Z" style="fill:rgb(38,50,56);fill-rule:nonzero;"/>
                        </g>
                    </g>
                    <g>
                        <g>
                            <rect x="343.673" y="158.963" width="6.191" height="6.191" style="fill:rgb(38,50,56);"/>
                        </g>
                    </g>
                    <g>
                        <g>
                            <path d="M365.342,183.728L359.151,183.728L359.151,202.301L371.533,202.301L371.533,196.11L365.342,196.11L365.342,189.919L371.533,189.919L371.533,183.728L377.724,183.728L377.724,177.537L371.533,177.537L371.533,171.346L365.342,171.346L365.342,183.728Z" style="fill:rgb(38,50,56);fill-rule:nonzero;"/>
                        </g>
                    </g>
                    <g>
                        <g>
                            <rect x="337.481" y="165.154" width="6.191" height="6.191" style="fill:rgb(38,50,56);"/>
                        </g>
                    </g>
                    <g>
                        <g>
                            <path d="M362.246,227.066L362.246,233.258L374.629,233.258L374.629,227.066L387.011,227.066L387.011,220.875L368.438,220.875L368.438,227.066L362.246,227.066Z" style="fill:rgb(38,50,56);fill-rule:nonzero;"/>
                        </g>
                    </g>
                    <g>
                        <g>
                            <rect x="389.452" y="202.301" width="6.191" height="6.191" style="fill:rgb(38,50,56);"/>
                        </g>
                    </g>
                    <g>
                        <g>
                            <rect x="368.438" y="208.493" width="6.191" height="6.191" style="fill:rgb(38,50,56);"/>
                        </g>
                    </g>
                    <g>
                        <g>
                            <path d="M390.107,189.919L377.724,189.919L377.724,196.11L383.916,196.11L383.916,202.301L390.107,202.301L390.107,189.919Z" style="fill:rgb(38,50,56);fill-rule:nonzero;"/>
                        </g>
                    </g>
                    <g>
                        <g>
                            <rect x="380.82" y="208.493" width="6.191" height="6.191" style="fill:rgb(38,50,56);"/>
                        </g>
                    </g>
                    <g>
                        <g>
                            <path d="M318.907,245.756L337.489,245.756L337.489,220.868L312.6,220.868L312.6,227.066L306.525,227.066L306.525,233.257L312.6,233.257L312.6,239.448L306.525,239.448L306.525,245.639L312.6,245.639L312.6,245.755L312.716,245.755L312.716,251.83L306.525,251.83L306.525,264.212L312.716,264.212L312.716,258.021L318.907,258.021L318.907,245.756ZM332.722,225.635L332.722,241.113L317.244,241.113L317.244,225.635L332.722,225.635Z" style="fill:rgb(38,50,56);fill-rule:nonzero;"/>
                        </g>
                    </g>
                    <g>
                        <g>
                            <path d="M387.011,220.875L405.585,220.875L405.585,214.684L387.011,214.684L387.011,220.875Z" style="fill:rgb(38,50,56);fill-rule:nonzero;"/>
                        </g>
                    </g>
                    <g>
                        <g>
                            <path d="M399.394,196.11L405.585,196.11L405.585,183.728L399.394,183.728L399.394,196.11Z" style="fill:rgb(38,50,56);fill-rule:nonzero;"/>
                        </g>
                    </g>
                    <g>
                        <g>
                            <path d="M350.095,227.308L343.904,227.308L343.904,239.69L350.095,239.69L350.095,227.308Z" style="fill:rgb(38,50,56);fill-rule:nonzero;"/>
                        </g>
                    </g>
                    <g>
                        <g>
                            <rect x="405.585" y="220.875" width="6.191" height="6.191" style="fill:rgb(38,50,56);"/>
                        </g>
                    </g>
                    <g>
                        <g>
                            <path d="M411.776,214.684L411.776,202.301L405.585,202.301L405.585,214.684L411.776,214.684Z" style="fill:rgb(38,50,56);fill-rule:nonzero;"/>
                        </g>
                    </g>
                    <g>
                        <g>
                            <path d="M300.334,251.831L294.143,251.831L294.143,264.214L300.334,264.214L300.334,251.831Z" style="fill:rgb(38,50,56);fill-rule:nonzero;"/>
                        </g>
                    </g>
                    <g>
                        <g>
                            <path d="M411.776,177.537L411.776,146.581L380.82,146.581L380.82,177.537L411.776,177.537ZM385.464,172.893L385.464,151.224L407.133,151.224L407.133,172.893L385.464,172.893Z" style="fill:rgb(38,50,56);fill-rule:nonzero;"/>
                        </g>
                    </g>
                    <g>
                        <g>
                            <rect x="390.107" y="155.867" width="12.382" height="12.382" style="fill:rgb(38,50,56);"/>
                        </g>
                    </g>
                    <g>
                        <g>
                            <path d="M411.776,233.258L380.82,233.258L380.82,264.214L411.776,264.214L411.776,233.258ZM385.464,259.57L385.464,237.901L407.133,237.901L407.133,259.57L385.464,259.57Z" style="fill:rgb(38,50,56);fill-rule:nonzero;"/>
                        </g>
                    </g>
                    <g>
                        <g>
                            <rect x="390.107" y="242.544" width="12.382" height="12.383" style="fill:rgb(38,50,56);"/>
                        </g>
                    </g>
                    <g>
                        <g>
                            <path d="M294.065,146.581L294.065,177.537L325.021,177.537L325.021,146.581L294.065,146.581ZM320.378,151.224L320.378,172.893L298.709,172.893L298.709,151.224L320.378,151.224Z" style="fill:rgb(38,50,56);fill-rule:nonzero;"/>
                        </g>
                    </g>
                    <g>
                        <g>
                            <rect x="303.352" y="155.867" width="12.383" height="12.382" style="fill:rgb(38,50,56);"/>
                        </g>
                    </g>
                </g>
            </g>
        </g>
        <g id="Logo" transform="matrix(5.08891,0,0,4.88625,-1113.2,569.467)">
            <g id="Text" transform="matrix(1,0,0,1,-4.03111,2.24472)">
                <g id="Texi-Service" serif:id="Texi Service" transform="matrix(1.09414,0,0,1,414.92,49.0333)">
                    <text x="0px" y="0px" style="font-family:'Metropolis-Regular', 'Metropolis';font-size:10px;fill:rgb(59,59,59);">TA<tspan x="14.75px 22.52px 25.68px 29.38px 36.31px 43.38px 50.68px 59.03px 62.19px 69.79px " y="0px 0px 0px 0px 0px 0px 0px 0px 0px 0px ">XI SERVICE</tspan></text>
                </g>
                <g id="CarrGo" transform="matrix(1,0,0,1,414.5,38)">
                    <text x="0px" y="0px" style="font-family:'Metropolis-ExtraBold', 'Metropolis';font-weight:800;font-size:24px;fill:rgb(247,188,0);">Carr</text>
                    <text x="50.712px" y="0px" style="font-family:'Metropolis-ExtraBold', 'Metropolis';font-weight:800;font-size:24px;fill:rgb(59,59,59);">Go</text>
                </g>
            </g>
            <g id="Shape" transform="matrix(1.00243,0,0,0.96875,0.396189,4.01099)">
                <path id="Shape1" serif:id="Shape" d="M391.528,25.425C396.311,26.406 399.478,28.875 401.155,32.987C401.37,33.486 401.548,34.004 401.685,34.539C401.685,34.539 401.685,34.54 401.686,34.541C399.106,33.773 394.723,32.652 391.14,32.652C386.498,32.652 380.514,34.533 378.849,35.088L377.394,35.546C377.33,36.082 377.28,36.674 377.28,37.227C377.28,44.834 383.486,51 391.139,51C398.795,51 405,44.834 405,37.227C405,29.621 398.795,23.455 391.139,23.455L391.528,25.425ZM387.525,47.43C383.601,46.057 380.708,42.514 380.305,38.25C382.668,37.456 386.811,36.376 387.617,38.222C389.062,41.536 388.192,45.385 387.525,47.43ZM394.755,47.43C394.088,45.385 393.218,41.535 394.664,38.222C395.468,36.376 399.612,37.456 401.975,38.25C401.572,42.514 398.68,46.057 394.755,47.43ZM391.14,38.739C389.923,38.739 388.938,37.76 388.938,36.551C388.938,35.343 389.923,34.363 391.14,34.363C392.356,34.363 393.342,35.343 393.342,36.551C393.342,37.76 392.356,38.739 391.14,38.739ZM376.082,32.133C375.993,32.218 375.874,32.276 375.742,32.293C375.412,32.332 375.115,32.097 375.077,31.77C374.655,28.152 375.937,24.642 378.592,22.141C381.186,19.697 384.703,18.6 388.242,19.131C388.57,19.181 388.793,19.484 388.743,19.809C388.693,20.135 388.39,20.359 388.062,20.308C384.891,19.832 381.739,20.815 379.416,23.004C377.036,25.247 375.89,28.391 376.265,31.632C376.291,31.828 376.215,32.008 376.082,32.133ZM388.104,26.656C387.992,26.761 387.84,26.823 387.676,26.818C386.409,26.785 385.206,27.245 384.286,28.11C383.366,28.977 382.842,30.148 382.808,31.407C382.798,31.736 382.524,31.995 382.191,31.986C381.862,31.979 381.601,31.704 381.61,31.375C381.65,29.798 382.31,28.331 383.462,27.246C384.612,26.16 386.12,25.587 387.709,25.63C388.038,25.637 388.299,25.911 388.29,26.237C388.285,26.404 388.215,26.551 388.104,26.656ZM388.095,23.444C387.99,23.543 387.851,23.604 387.696,23.609C385.625,23.653 383.658,24.46 382.155,25.876C380.703,27.243 379.797,29.083 379.599,31.058C379.566,31.383 379.272,31.624 378.944,31.59C378.614,31.557 378.373,31.265 378.406,30.938C378.633,28.68 379.671,26.576 381.331,25.012C383.052,23.39 385.301,22.47 387.668,22.415C387.999,22.411 388.273,22.67 388.282,23C388.286,23.175 388.212,23.333 388.095,23.444Z" style="fill:rgb(59,59,59);"/>
            </g>
        </g>
    </g>
</svg>
