<?xml version="1.0" encoding="UTF-8" standalone="no"?>
<!DOCTYPE svg PUBLIC "-//W3C//DTD SVG 1.1//EN" "http://www.w3.org/Graphics/SVG/1.1/DTD/svg11.dtd">
<svg width="100%" height="100%" viewBox="0 0 122 32" version="1.1" xmlns="http://www.w3.org/2000/svg" xmlns:xlink="http://www.w3.org/1999/xlink" xml:space="preserve" xmlns:serif="http://www.serif.com/" style="fill-rule:evenodd;clip-rule:evenodd;stroke-linejoin:round;stroke-miterlimit:2;">
    <g id="Logo" transform="matrix(1,0,0,1,-375.294,-19)">
        <g id="Text" transform="matrix(1,0,0,1,-1,0)">
            <g id="Texi-Service" serif:id="Texi Service" transform="matrix(1.07666,0,0,1,415.497,50)">
                <text x="0px" y="0px" style="font-family:'Montserrat-Regular', 'Montserrat';font-size:10px;fill:white;">T<tspan x="6.19px 13.84px 20.96px 24.78px 28.2px 35.15px 42.64px 50.67px 58.3px 62.12px 70.11px " y="0px 0px 0px 0px 0px 0px 0px 0px 0px 0px 0px ">AXI SERVICE</tspan></text>
            </g>
            <g id="CarrGo" transform="matrix(1,0,0,1,414.5,38)">
                <text x="0px" y="0px" style="font-family:'Metropolis-ExtraBold', 'Metropolis';font-weight:800;font-size:24px;fill:rgb(247,188,0);">Carr</text>
                <text x="50.712px" y="0px" style="font-family:'Metropolis-ExtraBold', 'Metropolis';font-weight:800;font-size:24px;fill:white;">Go</text>
            </g>
        </g>
        <g id="Shape" transform="matrix(1,0,0,1,0.296061,1.73993e-06)">
            <path id="Shape1" serif:id="Shape" d="M391.528,25.425C396.311,26.406 399.478,28.875 401.155,32.987C401.37,33.486 401.548,34.004 401.685,34.539C401.685,34.539 401.685,34.54 401.686,34.541C399.106,33.773 394.723,32.652 391.14,32.652C386.498,32.652 380.514,34.533 378.849,35.088L377.394,35.546C377.33,36.082 377.28,36.674 377.28,37.227C377.28,44.834 383.486,51 391.139,51C398.795,51 405,44.834 405,37.227C405,29.621 398.795,23.455 391.139,23.455L391.528,25.425ZM387.525,47.43C383.601,46.057 380.708,42.514 380.305,38.25C382.668,37.456 386.811,36.376 387.617,38.222C389.062,41.536 388.192,45.385 387.525,47.43ZM394.755,47.43C394.088,45.385 393.218,41.535 394.664,38.222C395.468,36.376 399.612,37.456 401.975,38.25C401.572,42.514 398.68,46.057 394.755,47.43ZM391.14,38.739C389.923,38.739 388.938,37.76 388.938,36.551C388.938,35.343 389.923,34.363 391.14,34.363C392.356,34.363 393.342,35.343 393.342,36.551C393.342,37.76 392.356,38.739 391.14,38.739ZM376.082,32.133C375.993,32.218 375.874,32.276 375.742,32.293C375.412,32.332 375.115,32.097 375.077,31.77C374.655,28.152 375.937,24.642 378.592,22.141C381.186,19.697 384.703,18.6 388.242,19.131C388.57,19.181 388.793,19.484 388.743,19.809C388.693,20.135 388.39,20.359 388.062,20.308C384.891,19.832 381.739,20.815 379.416,23.004C377.036,25.247 375.89,28.391 376.265,31.632C376.291,31.828 376.215,32.008 376.082,32.133ZM388.104,26.656C387.992,26.761 387.84,26.823 387.676,26.818C386.409,26.785 385.206,27.245 384.286,28.11C383.366,28.977 382.842,30.148 382.808,31.407C382.798,31.736 382.524,31.995 382.191,31.986C381.862,31.979 381.601,31.704 381.61,31.375C381.65,29.798 382.31,28.331 383.462,27.246C384.612,26.16 386.12,25.587 387.709,25.63C388.038,25.637 388.299,25.911 388.29,26.237C388.285,26.404 388.215,26.551 388.104,26.656ZM388.095,23.444C387.99,23.543 387.851,23.604 387.696,23.609C385.625,23.653 383.658,24.46 382.155,25.876C380.703,27.243 379.797,29.083 379.599,31.058C379.566,31.383 379.272,31.624 378.944,31.59C378.614,31.557 378.373,31.265 378.406,30.938C378.633,28.68 379.671,26.576 381.331,25.012C383.052,23.39 385.301,22.47 387.668,22.415C387.999,22.411 388.273,22.67 388.282,23C388.286,23.175 388.212,23.333 388.095,23.444Z" style="fill:white;"/>
        </g>
    </g>
</svg>
